<?xml version="1.0" encoding="UTF-8"?>
<svg width="201px" height="269px" viewBox="0 0 201 269" version="1.1" xmlns="http://www.w3.org/2000/svg" xmlns:xlink="http://www.w3.org/1999/xlink">
    <!-- Generator: Sketch 50.2 (55047) - http://www.bohemiancoding.com/sketch -->
    <title>logo</title>
    <desc>Created with Sketch.</desc>
    <defs></defs>
    <g id="Page-1" stroke="none" stroke-width="1" fill="none" fill-rule="evenodd">
        <g id="test" fill="#FF3D00">
            <path d="M130.156393,7.15521213 C125.560052,11.8920425 123.281865,17.4683112 123.281865,23.8640315 C123.281865,30.2597518 125.560052,35.8759938 130.156393,40.7327439 C134.73275,45.5495208 140.088487,47.9679025 146.263571,47.9679025 C152.418672,47.9679025 157.794393,45.5495208 162.37075,40.7327439 C166.947107,35.8759938 169.245277,30.2597518 169.245277,23.8640315 C169.245277,17.4683112 166.947107,11.8920425 162.37075,7.15521213 C157.794393,2.39839513 152.418672,0 146.263571,0 C140.088487,0 134.73275,2.39839513 130.156393,7.15521213 Z M38.4693776,7.15521213 C33.7331477,11.8920425 31.3550408,17.4683112 31.3550408,23.8640315 C31.3550408,30.2597518 33.7331477,35.8759938 38.4693776,40.7327439 C43.2455757,45.5495208 48.9010738,47.9679025 55.455856,47.9679025 C61.8507656,47.9679025 67.4263273,45.5495208 72.1625572,40.7327439 C76.9187711,35.8759938 79.3168622,30.2597518 79.3168622,23.8640315 C79.3168622,17.4683112 76.9187711,11.8920425 72.1625572,7.15521213 C67.4263273,2.39839513 61.8507656,0 55.455856,0 C48.9010738,0 43.2455757,2.39839513 38.4693776,7.15521213 Z M193.166236,217.634371 C193.166236,217.634371 165.088586,217.634371 165.088586,217.634371 C160.792006,223.630359 155.656095,228.786908 149.720819,233.084033 C149.720819,233.084033 149.720819,261.165243 149.720819,261.165243 C143.505767,264.423063 137.330682,267.101271 131.115629,269 C131.115629,269 111.411314,249.053347 111.411314,249.053347 C107.914098,249.592986 104.137105,249.832826 100.360111,249.832826 C96.8628952,249.832826 93.0859018,249.592986 89.5487174,249.053347 C89.5487174,249.053347 69.6045934,269 69.6045934,269 C63.669318,267.101271 57.4542653,264.423063 51.2791808,261.165243 C51.2791808,261.165243 51.2791808,233.084033 51.2791808,233.084033 C45.3039372,228.786908 40.1880095,223.630359 35.5916683,217.634371 C35.5916683,217.634371 7.83376417,217.634371 7.83376417,217.634371 C4.31656393,211.41853 1.61871147,205.182703 0,198.926889 C0,198.926889 19.9641082,179.200089 19.9641082,179.200089 C19.4245377,175.70243 19.1447604,171.924957 19.1447604,168.127498 C19.1447604,164.649825 19.4245377,160.852366 19.9641082,157.354707 C19.9641082,157.354707 0,137.567947 0,137.567947 C1.61871147,131.751839 4.31656393,125.695891 7.83376417,119.59997 C7.83376417,119.59997 35.5916683,119.59997 35.5916683,119.59997 C40.1880095,113.823835 45.3039372,108.807192 51.2791808,104.330188 C51.2791808,104.330188 51.2791808,76.109072 51.2791808,76.109072 C57.4542653,72.4515194 63.669318,69.6334052 69.6045934,67.9545286 C69.6045934,67.9545286 89.5487174,88.720633 89.5487174,88.720633 C93.0859018,88.1809941 96.8628952,87.9011814 100.360111,87.9011814 C104.137105,87.9011814 107.914098,88.1809941 111.411314,88.720633 C111.411314,88.720633 131.115629,67.9545286 131.115629,67.9545286 C137.330682,69.6334052 143.505767,72.4515194 149.720819,76.109072 C149.720819,76.109072 149.720819,104.330188 149.720819,104.330188 C155.656095,108.807192 160.792006,113.823835 165.088586,119.59997 C165.088586,119.59997 193.166236,119.59997 193.166236,119.59997 C196.403659,125.695891 199.101511,131.751839 201,137.567947 C201,137.567947 181.015908,157.354707 181.015908,157.354707 C181.555478,160.852366 181.835256,164.649825 181.835256,168.127498 C181.835256,171.924957 181.555478,175.70243 181.015908,179.200089 C181.015908,179.200089 201,198.926889 201,198.926889 C199.101511,205.182703 196.403659,211.41853 193.166236,217.634371 Z M167.526645,168.127498 C167.526645,132.531317 136.231557,101.931793 100.360111,101.931793 C64.7284748,101.931793 33.1935773,132.81113 33.1935773,168.127498 C33.1935773,204.083439 64.7284748,235.562375 100.360111,235.562375 C137.590475,235.562375 167.526645,202.744335 167.526645,168.127498 Z M76.8788029,168.127498 C76.8788029,155.216138 87.930006,144.683186 100.360111,144.683186 C113.05001,144.683186 124.101213,155.216138 124.101213,168.127498 C124.101213,180.819006 112.750249,191.87161 100.360111,191.87161 C87.930006,191.87161 76.8788029,180.819006 76.8788029,168.127498 Z" id="Path-#2"></path>
        </g>
    </g>
</svg>